<?xml version="1.0" encoding="UTF-8" standalone="no"?>
<!DOCTYPE svg PUBLIC "-//W3C//DTD SVG 1.1//EN"
 "http://www.w3.org/Graphics/SVG/1.1/DTD/svg11.dtd">
<!-- Generated by graphviz version 2.40.1 (20161225.0304)
 -->
<!-- Title: models_diagram Pages: 1 -->
<svg width="564pt" height="153pt"
 viewBox="0.00 0.00 563.69 153.00" xmlns="http://www.w3.org/2000/svg" xmlns:xlink="http://www.w3.org/1999/xlink">
<g id="graph0" class="graph" transform="scale(1 1) rotate(0) translate(4 149)">
<title>models_diagram</title>
<polygon fill="transparent" stroke="transparent" points="-4,4 -4,-149 559.6877,-149 559.6877,4 -4,4"/>
<!-- _diagram_info -->
<g id="node1" class="node">
<title>_diagram_info</title>
<text text-anchor="start" x="8" y="-130.6" font-family="Times,serif" font-size="13.00" fill="#000000">Models diagram</text>
<text text-anchor="start" x="8" y="-117.6" font-family="Times,serif" font-size="13.00" fill="#000000">Date: Jul 19 2017 &#45; 20:01</text>
<text text-anchor="start" x="8" y="-104.6" font-family="Times,serif" font-size="13.00" fill="#000000">Migration version: 20170719232910</text>
<text text-anchor="start" x="8" y="-91.6" font-family="Times,serif" font-size="13.00" fill="#000000">Generated by RailRoady 1.5.3</text>
<text text-anchor="start" x="8" y="-78.6" font-family="Times,serif" font-size="13.00" fill="#000000">http://railroady.prestonlee.com</text>
</g>
<!-- ApplicationRecord -->
<g id="node2" class="node">
<title>ApplicationRecord</title>
<ellipse fill="none" stroke="#000000" cx="302.6877" cy="-108.5" rx="77.2916" ry="18"/>
<text text-anchor="middle" x="302.6877" y="-104.3" font-family="Times,serif" font-size="14.00" fill="#000000">ApplicationRecord</text>
</g>
<!-- Category -->
<g id="node3" class="node">
<title>Category</title>
<ellipse fill="none" stroke="#000000" cx="440.6877" cy="-108.5" rx="42.5456" ry="18"/>
<text text-anchor="middle" x="440.6877" y="-104.3" font-family="Times,serif" font-size="14.00" fill="#000000">Category</text>
</g>
<!-- Item -->
<g id="node4" class="node">
<title>Item</title>
<ellipse fill="none" stroke="#000000" cx="484.6877" cy="-18" rx="27" ry="18"/>
<text text-anchor="middle" x="484.6877" y="-13.8" font-family="Times,serif" font-size="14.00" fill="#000000">Item</text>
</g>
<!-- Category&#45;&gt;Item -->
<g id="edge1" class="edge">
<title>Category&#45;&gt;Item</title>
<path fill="none" stroke="#74a9d0" d="M453.0737,-83.0243C458.9322,-70.9745 465.9229,-56.5958 471.8392,-44.4272"/>
<ellipse fill="none" stroke="#74a9d0" cx="451.1297" cy="-87.0227" rx="4" ry="4"/>
<polygon fill="#74a9d0" stroke="#74a9d0" points="471.9388,-44.2221 480.3584,-37.1963 474.1251,-39.7254 476.3114,-35.2287 476.3114,-35.2287 476.3114,-35.2287 474.1251,-39.7254 472.2643,-33.2611 471.9388,-44.2221 471.9388,-44.2221"/>
</g>
<!-- User -->
<g id="node5" class="node">
<title>User</title>
<ellipse fill="none" stroke="#000000" cx="528.6877" cy="-108.5" rx="27" ry="18"/>
<text text-anchor="middle" x="528.6877" y="-104.3" font-family="Times,serif" font-size="14.00" fill="#000000">User</text>
</g>
<!-- User&#45;&gt;Item -->
<g id="edge2" class="edge">
<title>User&#45;&gt;Item</title>
<path fill="none" stroke="#cfd98a" d="M516.5146,-83.462C510.6521,-71.4039 503.6178,-56.9357 497.6549,-44.6711"/>
<ellipse fill="none" stroke="#cfd98a" cx="518.4551" cy="-87.4533" rx="4" ry="4"/>
<polygon fill="#cfd98a" stroke="#cfd98a" points="497.5179,-44.3892 497.1924,-33.4281 495.3316,-39.8925 493.1453,-35.3957 493.1453,-35.3957 493.1453,-35.3957 495.3316,-39.8925 489.0983,-37.3634 497.5179,-44.3892 497.5179,-44.3892"/>
</g>
</g>
</svg>
