<?xml version="1.0" encoding="UTF-8" standalone="no"?>
<!DOCTYPE svg PUBLIC "-//W3C//DTD SVG 1.1//EN"
 "http://www.w3.org/Graphics/SVG/1.1/DTD/svg11.dtd">
<!-- Generated by graphviz version 2.40.1 (20161225.0304)
 -->
<!-- Title: models_diagram Pages: 1 -->
<svg width="920pt" height="260pt"
 viewBox="0.00 0.00 919.55 260.00" xmlns="http://www.w3.org/2000/svg" xmlns:xlink="http://www.w3.org/1999/xlink">
<g id="graph0" class="graph" transform="scale(1 1) rotate(0) translate(4 256)">
<title>models_diagram</title>
<polygon fill="transparent" stroke="transparent" points="-4,4 -4,-256 915.55,-256 915.55,4 -4,4"/>
<!-- _diagram_info -->
<g id="node1" class="node">
<title>_diagram_info</title>
<text text-anchor="start" x="8" y="-223.6" font-family="Times,serif" font-size="13.00" fill="#000000">Models diagram</text>
<text text-anchor="start" x="8" y="-210.6" font-family="Times,serif" font-size="13.00" fill="#000000">Date: Jul 19 2017 &#45; 20:01</text>
<text text-anchor="start" x="8" y="-197.6" font-family="Times,serif" font-size="13.00" fill="#000000">Migration version: 20170719232910</text>
<text text-anchor="start" x="8" y="-184.6" font-family="Times,serif" font-size="13.00" fill="#000000">Generated by RailRoady 1.5.3</text>
<text text-anchor="start" x="8" y="-171.6" font-family="Times,serif" font-size="13.00" fill="#000000">http://railroady.prestonlee.com</text>
</g>
<!-- ApplicationRecord -->
<g id="node2" class="node">
<title>ApplicationRecord</title>
<ellipse fill="none" stroke="#000000" cx="302.6877" cy="-201.5" rx="77.2916" ry="18"/>
<text text-anchor="middle" x="302.6877" y="-197.3" font-family="Times,serif" font-size="14.00" fill="#000000">ApplicationRecord</text>
</g>
<!-- Category -->
<g id="node3" class="node">
<title>Category</title>
<path fill="none" stroke="#000000" d="M409.8254,-158.5C409.8254,-158.5 633.55,-158.5 633.55,-158.5 639.55,-158.5 645.55,-164.5 645.55,-170.5 645.55,-170.5 645.55,-232.5 645.55,-232.5 645.55,-238.5 639.55,-244.5 633.55,-244.5 633.55,-244.5 409.8254,-244.5 409.8254,-244.5 403.8254,-244.5 397.8254,-238.5 397.8254,-232.5 397.8254,-232.5 397.8254,-170.5 397.8254,-170.5 397.8254,-164.5 403.8254,-158.5 409.8254,-158.5"/>
<text text-anchor="middle" x="521.6877" y="-229.3" font-family="Times,serif" font-size="14.00" fill="#000000">Category</text>
<polyline fill="none" stroke="#000000" points="397.8254,-222.5 645.55,-222.5 "/>
<text text-anchor="start" x="405.8254" y="-207.3" font-family="Times,serif" font-size="14.00" fill="#000000">id :integer</text>
<text text-anchor="start" x="405.8254" y="-193.3" font-family="Times,serif" font-size="14.00" fill="#000000">name :character varying</text>
<text text-anchor="start" x="405.8254" y="-179.3" font-family="Times,serif" font-size="14.00" fill="#000000">created_at :timestamp without time zone</text>
<text text-anchor="start" x="405.8254" y="-165.3" font-family="Times,serif" font-size="14.00" fill="#000000">updated_at :timestamp without time zone</text>
</g>
<!-- Item -->
<g id="node4" class="node">
<title>Item</title>
<path fill="none" stroke="#000000" d="M542.8254,-.5C542.8254,-.5 766.55,-.5 766.55,-.5 772.55,-.5 778.55,-6.5 778.55,-12.5 778.55,-12.5 778.55,-102.5 778.55,-102.5 778.55,-108.5 772.55,-114.5 766.55,-114.5 766.55,-114.5 542.8254,-114.5 542.8254,-114.5 536.8254,-114.5 530.8254,-108.5 530.8254,-102.5 530.8254,-102.5 530.8254,-12.5 530.8254,-12.5 530.8254,-6.5 536.8254,-.5 542.8254,-.5"/>
<text text-anchor="middle" x="654.6877" y="-99.3" font-family="Times,serif" font-size="14.00" fill="#000000">Item</text>
<polyline fill="none" stroke="#000000" points="530.8254,-92.5 778.55,-92.5 "/>
<text text-anchor="start" x="538.8254" y="-77.3" font-family="Times,serif" font-size="14.00" fill="#000000">id :integer</text>
<text text-anchor="start" x="538.8254" y="-63.3" font-family="Times,serif" font-size="14.00" fill="#000000">name :character varying</text>
<text text-anchor="start" x="538.8254" y="-49.3" font-family="Times,serif" font-size="14.00" fill="#000000">number :integer</text>
<text text-anchor="start" x="538.8254" y="-35.3" font-family="Times,serif" font-size="14.00" fill="#000000">created_at :timestamp without time zone</text>
<text text-anchor="start" x="538.8254" y="-21.3" font-family="Times,serif" font-size="14.00" fill="#000000">updated_at :timestamp without time zone</text>
<text text-anchor="start" x="538.8254" y="-7.3" font-family="Times,serif" font-size="14.00" fill="#000000">size :integer</text>
</g>
<!-- Category&#45;&gt;Item -->
<g id="edge1" class="edge">
<title>Category&#45;&gt;Item</title>
<path fill="none" stroke="#287efa" d="M567.036,-152.4011C576.089,-142.5994 585.7257,-132.1657 595.1723,-121.9378"/>
<ellipse fill="none" stroke="#287efa" cx="564.3061" cy="-155.3568" rx="4" ry="4"/>
<polygon fill="#287efa" stroke="#287efa" points="595.2213,-121.8847 605.312,-117.5919 598.6138,-118.2117 602.0062,-114.5386 602.0062,-114.5386 602.0062,-114.5386 598.6138,-118.2117 598.7005,-111.4854 595.2213,-121.8847 595.2213,-121.8847"/>
</g>
<!-- User -->
<g id="node5" class="node">
<title>User</title>
<path fill="none" stroke="#000000" d="M675.8254,-151.5C675.8254,-151.5 899.55,-151.5 899.55,-151.5 905.55,-151.5 911.55,-157.5 911.55,-163.5 911.55,-163.5 911.55,-239.5 911.55,-239.5 911.55,-245.5 905.55,-251.5 899.55,-251.5 899.55,-251.5 675.8254,-251.5 675.8254,-251.5 669.8254,-251.5 663.8254,-245.5 663.8254,-239.5 663.8254,-239.5 663.8254,-163.5 663.8254,-163.5 663.8254,-157.5 669.8254,-151.5 675.8254,-151.5"/>
<text text-anchor="middle" x="787.6877" y="-236.3" font-family="Times,serif" font-size="14.00" fill="#000000">User</text>
<polyline fill="none" stroke="#000000" points="663.8254,-229.5 911.55,-229.5 "/>
<text text-anchor="start" x="671.8254" y="-214.3" font-family="Times,serif" font-size="14.00" fill="#000000">id :integer</text>
<text text-anchor="start" x="671.8254" y="-200.3" font-family="Times,serif" font-size="14.00" fill="#000000">name :character varying</text>
<text text-anchor="start" x="671.8254" y="-186.3" font-family="Times,serif" font-size="14.00" fill="#000000">email :character varying</text>
<text text-anchor="start" x="671.8254" y="-172.3" font-family="Times,serif" font-size="14.00" fill="#000000">created_at :timestamp without time zone</text>
<text text-anchor="start" x="671.8254" y="-158.3" font-family="Times,serif" font-size="14.00" fill="#000000">updated_at :timestamp without time zone</text>
</g>
<!-- User&#45;&gt;Item -->
<g id="edge2" class="edge">
<title>User&#45;&gt;Item</title>
<path fill="none" stroke="#322a5e" d="M735.5468,-145.0467C728.7057,-137.6397 721.6517,-130.0023 714.6934,-122.4685"/>
<ellipse fill="none" stroke="#322a5e" cx="738.4568" cy="-148.1973" rx="4" ry="4"/>
<polygon fill="#322a5e" stroke="#322a5e" points="714.5634,-122.3278 711.0842,-111.9284 711.1709,-118.6547 707.7784,-114.9817 707.7784,-114.9817 707.7784,-114.9817 711.1709,-118.6547 704.4727,-118.0349 714.5634,-122.3278 714.5634,-122.3278"/>
</g>
</g>
</svg>
